<?xml version="1.0" standalone="no"?><!DOCTYPE svg PUBLIC "-//W3C//DTD SVG 1.1//EN" "http://www.w3.org/Graphics/SVG/1.1/DTD/svg11.dtd"><svg width="200" height="200" viewBox="0 0 200 200" version="1.1" xmlns="http://www.w3.org/2000/svg" xmlns:xlink="http://www.w3.org/1999/xlink"><defs><style type="text/css"><![CDATA[
@font-face { font-family: ifont; src: url("//at.alicdn.com/t/font_1442373896_4754455.eot?#iefix") format("embedded-opentype"), url("//at.alicdn.com/t/font_1442373896_4754455.woff") format("woff"), url("//at.alicdn.com/t/font_1442373896_4754455.ttf") format("truetype"), url("//at.alicdn.com/t/font_1442373896_4754455.svg#ifont") format("svg"); }

]]></style></defs><g class="transform-group"><g transform="scale(0.1953125, 0.1953125)"><path d="M958.4 835.2l-48 0L910.4 393.6c0-59.2-48-107.2-107.2-107.2l-158.4 0 0-56c0-59.2-48-107.2-107.2-107.2L208 123.2c-59.2 0-107.2 48-107.2 107.2l0 603.2L65.6 833.6c-17.6 0-32 14.4-32 32s14.4 32 32 32l892.8 0c17.6 0 32-14.4 32-32S976 835.2 958.4 835.2zM803.2 352c24 0 43.2 19.2 43.2 43.2l0 441.6L644.8 836.8 644.8 352 803.2 352zM164.8 232c0-24 19.2-43.2 43.2-43.2l331.2 0c24 0 43.2 19.2 43.2 43.2l0 603.2L164.8 835.2 164.8 232zM241.6 299.2l104 0 0 104-104 0 0-104ZM408 299.2l104 0 0 104-104 0 0-104ZM241.6 467.2l104 0 0 104-104 0 0-104ZM408 467.2l104 0 0 104-104 0 0-104ZM241.6 635.2l104 0 0 104-104 0 0-104ZM408 635.2l104 0 0 104-104 0 0-104ZM694.4 467.2l104 0 0 104-104 0 0-104ZM694.4 635.2l104 0 0 104-104 0 0-104Z" fill="#ffffff"></path></g></g></svg>